<svg xmlns="http://www.w3.org/2000/svg" viewBox="0 0 1000 1000"><defs><style>.a{fill:#4a5057;}.b{fill:#fff;}</style></defs><title>temp_icon</title><rect class="a" width="1000" height="1000"/><path class="b" d="M801.36,542.51c-54.06,0-77.48,41.14-106.85,41.14-78.09,0-7-229.48-7-229.48s-255.58,104.16-255.58-4.3c0-46.65,47.25-60.22,47.25-112,0-46.22-36.61-71.24-80-71.24-45.12,0-86.41,24.59-86.41,73.36,0,53.86,41.29,77.19,41.29,106.45,0,90.65-229,37.32-229,37.32V817.7s232.6,53.45,232.6-37.32c0-29.26-52.09-52.22-52.09-106.08,0-48.77,38.09-73.37,82.79-73.37,43.84,0,80.45,25,80.45,71.25,0,51.74-47.25,65.31-47.25,112,0,79.17,168.85,33.5,236,33.5,0,0-45.22-156.38,33.63-156.38,46.82,0,60.44,47.07,112.38,47.07,46.4,0,71.51-36.47,71.51-80.15C875,583.65,850.31,542.51,801.36,542.51Z"/></svg>